<?xml version="1.0" standalone="no"?><!DOCTYPE svg PUBLIC "-//W3C//DTD SVG 1.1//EN" "http://www.w3.org/Graphics/SVG/1.1/DTD/svg11.dtd"><svg t="1515307585604" class="icon" style="" viewBox="0 0 1024 1024" version="1.1" xmlns="http://www.w3.org/2000/svg" p-id="1943" xmlns:xlink="http://www.w3.org/1999/xlink" width="200" height="200"><defs><style type="text/css"></style></defs><path d="M896 0H128a128 128 0 0 0-128 128v768a128 128 0 0 0 128 128h768a128 128 0 0 0 128-128V128a128 128 0 0 0-128-128z m-104.746667 683.605333c-13.290667 12.437333-36.16-1.109333-58.218666-31.552a330.688 330.688 0 0 1-36.416 70.869334c31.125333 11.093333 51.114667 28.458667 51.114666 48 0 33.749333-59.797333 61.056-133.525333 61.056-43.776 0-82.389333-9.514667-106.858667-24.448-24.192 14.933333-63.061333 24.469333-106.816 24.469333-73.749333 0-133.504-27.328-133.504-61.077333 0-19.328 19.989333-36.885333 51.093334-48a321.92 321.92 0 0 1-36.437334-70.826667c-21.994667 30.208-44.885333 43.989333-58.218666 31.552-18.218667-17.109333-11.328-77.525333 15.765333-134.826667 6.229333-13.077333 12.885333-24.874667 19.776-35.114666C262.805333 347.072 372.544 213.333333 507.157333 213.333333h0.448c134.613333 0 244.352 133.504 248.106667 300.330667 6.890667 10.218667 13.589333 21.994667 19.797333 35.114667 26.858667 57.301333 33.941333 117.717333 15.744 134.826666z" fill="#0091EA" p-id="1944"></path></svg>